<?xml version="1.0" encoding="UTF-8" standalone="no"?>
<!-- Created with Inkscape (http://www.inkscape.org/) -->

<svg
   version="1.1"
   id="svg1"
   width="272.76321"
   height="155.5609"
   viewBox="0 0 272.76321 155.5609"
   sodipodi:docname="itr8.svg"
   xml:space="preserve"
   inkscape:export-filename="itr8.svg"
   inkscape:export-xdpi="96"
   inkscape:export-ydpi="96"
   inkscape:version="1.4.2 (ebf0e940, 2025-05-08)"
   xmlns:inkscape="http://www.inkscape.org/namespaces/inkscape"
   xmlns:sodipodi="http://sodipodi.sourceforge.net/DTD/sodipodi-0.dtd"
   xmlns="http://www.w3.org/2000/svg"
   xmlns:svg="http://www.w3.org/2000/svg"><defs
     id="defs1" /><sodipodi:namedview
     id="namedview1"
     pagecolor="#ffffff"
     bordercolor="#000000"
     borderopacity="0.25"
     inkscape:showpageshadow="2"
     inkscape:pageopacity="0.0"
     inkscape:pagecheckerboard="0"
     inkscape:deskcolor="#d1d1d1"
     inkscape:zoom="0.3440023"
     inkscape:cx="315.40487"
     inkscape:cy="146.80134"
     inkscape:window-width="1472"
     inkscape:window-height="890"
     inkscape:window-x="0"
     inkscape:window-y="38"
     inkscape:window-maximized="1"
     inkscape:current-layer="layer4"><inkscape:page
       x="0"
       y="0"
       width="272.76321"
       height="155.5609"
       id="page2"
       margin="0"
       bleed="0" /></sodipodi:namedview><g
     inkscape:groupmode="layer"
     id="layer4"
     inkscape:label="Layer 2"
     transform="translate(-38.384286,-21.466999)"><path
       style="fill:#000000"
       d="m 111.02257,176.35765 c -29.58258,-4.78857 -55.1349,-23.76881 -66.217704,-49.18645 -2.26028,-5.1838 -3.23093,-8.11213 -4.99006,-15.05438 -1.33926,-5.28526 -1.43052,-6.41711 -1.43052,-17.74267 0,-11.33204 0.0907,-12.45588 1.43452,-17.76637 4.3129,-17.044184 13.022974,-30.883414 25.743394,-40.903064 19.25466,-15.16656 41.21329,-18.25174 64.65964,-9.08467 11.89788,4.65184 19.41913,10.378276 37.95103,28.8947 l 14.20639,14.194534 6.49339,-6.389574 c 15.00887,-14.768905 23.04603,-21.52318 30.8435,-25.92034 9.08506,-5.12326 18.47965,-7.54652 29.23117,-7.53994 7.58416,0.005 11.30314,0.51146 18.01726,2.45536 21.13915,6.1203 37.77161,25.14884 42.96591,49.155604 1.17587,5.43458 1.61178,18.57402 0.80505,24.26614 -2.45151,17.29727 -9.85706,31.98762 -22.34587,44.32739 -11.77546,11.63492 -25.56098,17.49406 -41.40861,17.59953 -7.60768,0.0506 -12.54141,-0.7255 -19.93881,-3.1366 -6.10712,-1.99055 -11.61542,-4.62189 -17.15949,-8.1972 -4.03064,-2.59931 -10.46143,-7.71074 -12.59423,-10.01038 -0.7169,-0.77297 -1.57673,-1.4054 -1.91075,-1.4054 -0.33401,0 -1.44107,0.87534 -2.46014,1.9452 -3.25788,3.42026 -13.49979,11.56828 -19.32669,15.37549 -10.1056,6.60283 -20.35978,10.95522 -31.45291,13.35021 -7.04364,1.52071 -23.90781,1.9396 -31.11547,0.77288 z m 27.15165,-10.78847 c 13.8408,-2.62392 27.58052,-9.49775 40.25563,-20.13946 8.02973,-6.74155 30.91329,-28.29685 61.05114,-57.50745 5.64431,-5.47065 11.57643,-10.72272 13.18248,-11.67126 9.04526,-5.34216 20.01376,-3.99218 23.55418,2.899 0.90863,1.76859 0.73863,2.77164 -0.71635,4.22662 -1.51521,1.51521 -4.25537,1.74535 -5.90701,0.49612 -0.62961,-0.47621 -2.2294,-0.7873 -4.03242,-0.78413 -5.66699,0.01 -6.57492,0.71275 -29.94698,23.18092 -11.78698,11.33114 -23.85033,22.96759 -26.80744,25.85878 l -5.37657,5.25671 2.95711,2.6649 c 20.55627,18.52498 45.14007,22.33892 65.42123,10.14938 4.19079,-2.51878 12.15347,-10.1433 15.90765,-15.23209 1.74526,-2.36569 4.47466,-6.96265 6.06535,-10.21547 5.11636,-10.46253 7.07686,-19.82916 6.52705,-31.18408 -1.08778,-22.46502 -14.51968,-42.483484 -33.37776,-49.745074 -12.83187,-4.94111 -28.10053,-4.1474 -40.54078,2.10744 -8.22595,4.13592 -11.44822,7.03697 -60.05815,54.071154 -18.68121,18.07563 -20.73282,19.97908 -25.33698,23.50713 -16.46885,12.61967 -39.40195,15.30881 -56.61785,6.63902 -4.11434,-2.07195 -10.4233,-6.59502 -12.26681,-8.79442 -2.00798,-2.39563 -1.56102,-5.52423 0.97668,-6.83653 2.31164,-1.1954 3.0687,-1.00229 7.18264,1.83206 7.1941,4.95647 12.69715,7.06282 21.13165,8.08836 11.72754,1.42593 24.00491,-2.14659 33.53654,-9.7586 4.01796,-3.20877 39.19015,-36.82122 39.19015,-37.45223 0,-0.70718 -25.33213,-25.461824 -29.57111,-28.896994 -18.26794,-14.80388 -37.44394,-19.26143 -56.12235,-13.04591 -8.35498,2.78025 -15.86715,7.78605 -22.72339,15.14197 -11.63383,12.48167 -16.857124,26.303494 -16.857124,44.607144 0,18.92021 6.840654,35.28045 20.409634,48.81209 12.73048,12.69544 28.55778,20.32427 46.79743,22.55658 5.33301,0.65269 16.49769,0.23277 22.11253,-0.83168 z"
       id="path1-0"
       sodipodi:nodetypes="sssscssscsscssssssssssssssssssssssscsssssssssssssssssssssss"
       inkscape:label="path1-0" /></g></svg>
